<mxfile host="app.diagrams.net" agent="Mozilla/5.0 (Windows NT 10.0; Win64; x64) AppleWebKit/537.36 (KHTML, like Gecko) Chrome/134.0.0.0 Safari/537.36 Edg/134.0.0.0" version="28.0.9">
  <diagram name="Page-1" id="2_fTZcwGQ5jVpTEyzgYV">
    <mxGraphModel dx="2898" dy="1146" grid="1" gridSize="10" guides="1" tooltips="1" connect="1" arrows="1" fold="1" page="1" pageScale="1" pageWidth="850" pageHeight="1100" math="0" shadow="0">
      <root>
        <mxCell id="0" />
        <mxCell id="1" parent="0" />
        <mxCell id="JpUtrUThHZWOug7LlxBy-4" value="Internet" style="ellipse;shape=cloud;whiteSpace=wrap;html=1;" vertex="1" parent="1">
          <mxGeometry x="200" y="255" width="120" height="80" as="geometry" />
        </mxCell>
        <mxCell id="JpUtrUThHZWOug7LlxBy-5" value="&lt;div style=&quot;color: #cccccc;background-color: #1f1f1f;font-family: Consolas, &#39;Courier New&#39;, monospace;font-weight: normal;font-size: 14px;line-height: 19px;white-space: pre;&quot;&gt;&lt;div&gt;&lt;span style=&quot;color: #cccccc;&quot;&gt;+-----------------------------+&lt;/span&gt;&lt;/div&gt;&lt;div&gt;&lt;span style=&quot;color: #cccccc;&quot;&gt;| &amp;nbsp; &amp;nbsp; &amp;nbsp;Kubernetes Pods &amp;nbsp; &amp;nbsp; &amp;nbsp; &amp;nbsp;|&lt;/span&gt;&lt;/div&gt;&lt;div&gt;&lt;span style=&quot;color: #cccccc;&quot;&gt;| &amp;nbsp; (Flask App Containers) &amp;nbsp; &amp;nbsp;|&lt;/span&gt;&lt;/div&gt;&lt;div&gt;&lt;span style=&quot;color: #cccccc;&quot;&gt;| &amp;nbsp;[Replicas: 3-5, Stateless] |&lt;/span&gt;&lt;/div&gt;&lt;div&gt;&lt;span style=&quot;color: #cccccc;&quot;&gt;+-------------+---------------+&lt;/span&gt;&lt;/div&gt;&lt;/div&gt;" style="text;whiteSpace=wrap;html=1;" vertex="1" parent="1">
          <mxGeometry x="150" y="550" width="190" height="90" as="geometry" />
        </mxCell>
        <mxCell id="JpUtrUThHZWOug7LlxBy-13" value="&lt;blockquote style=&quot;margin: 0 0 0 40px; border: none; padding: 0px;&quot;&gt;&lt;blockquote style=&quot;margin: 0 0 0 40px; border: none; padding: 0px;&quot;&gt;DMZ&lt;/blockquote&gt;&lt;/blockquote&gt;" style="rounded=1;whiteSpace=wrap;html=1;" vertex="1" parent="1">
          <mxGeometry x="180" y="375" width="170" height="60" as="geometry" />
        </mxCell>
        <mxCell id="JpUtrUThHZWOug7LlxBy-10" value="Data" style="html=1;shadow=0;dashed=0;align=center;verticalAlign=middle;shape=mxgraph.arrows2.arrow;dy=0.6;dx=40;direction=south;notch=0;" vertex="1" parent="1">
          <mxGeometry x="395" y="110" width="90" height="417" as="geometry" />
        </mxCell>
        <mxCell id="JpUtrUThHZWOug7LlxBy-3" value="" style="image;sketch=0;aspect=fixed;html=1;points=[];align=center;fontSize=12;image=img/lib/mscae/Load_Balancer_feature.svg;" vertex="1" parent="1">
          <mxGeometry x="235" y="380" width="50" height="50" as="geometry" />
        </mxCell>
        <mxCell id="JpUtrUThHZWOug7LlxBy-14" value="&lt;blockquote style=&quot;margin: 0 0 0 40px; border: none; padding: 0px;&quot;&gt;&lt;blockquote style=&quot;margin: 0 0 0 40px; border: none; padding: 0px;&quot;&gt;&lt;blockquote style=&quot;margin: 0 0 0 40px; border: none; padding: 0px;&quot;&gt;Protected&lt;/blockquote&gt;&lt;/blockquote&gt;&lt;/blockquote&gt;" style="rounded=1;whiteSpace=wrap;html=1;" vertex="1" parent="1">
          <mxGeometry x="160" y="478.5" width="220" height="60" as="geometry" />
        </mxCell>
        <mxCell id="JpUtrUThHZWOug7LlxBy-1" value="" style="image;sketch=0;aspect=fixed;html=1;points=[];align=center;fontSize=12;image=img/lib/mscae/Kubernetes_Services.svg;" vertex="1" parent="1">
          <mxGeometry x="235" y="490" width="50" height="37" as="geometry" />
        </mxCell>
        <mxCell id="JpUtrUThHZWOug7LlxBy-15" value="Stack" style="text;html=1;align=center;verticalAlign=middle;whiteSpace=wrap;rounded=0;" vertex="1" parent="1">
          <mxGeometry x="410" y="590" width="60" height="30" as="geometry" />
        </mxCell>
        <mxCell id="JpUtrUThHZWOug7LlxBy-16" value="" style="sketch=0;outlineConnect=0;fontColor=#232F3E;gradientColor=none;fillColor=#232F3D;strokeColor=none;dashed=0;verticalLabelPosition=bottom;verticalAlign=top;align=center;html=1;fontSize=12;fontStyle=0;aspect=fixed;pointerEvents=1;shape=mxgraph.aws4.users;" vertex="1" parent="1">
          <mxGeometry x="221" y="90" width="78" height="78" as="geometry" />
        </mxCell>
      </root>
    </mxGraphModel>
  </diagram>
</mxfile>
